<?xml version="1.0" encoding="UTF-8" standalone="no"?>
<!DOCTYPE svg PUBLIC "-//W3C//DTD SVG 1.1//EN"
 "http://www.w3.org/Graphics/SVG/1.1/DTD/svg11.dtd">
<!-- Generated by graphviz version 7.0.6 (20230106.0513)
 -->
<!-- Title: sequential Pages: 1 -->
<svg width="879pt" height="1186pt"
 viewBox="0.00 0.00 879.00 1186.00" xmlns="http://www.w3.org/2000/svg" xmlns:xlink="http://www.w3.org/1999/xlink">
<g id="graph0" class="graph" transform="scale(1 1) rotate(0) translate(4 1182)">
<title>sequential</title>
<polygon fill="white" stroke="none" points="-4,4 -4,-1182 875,-1182 875,4 -4,4"/>
<!-- tensordict -->
<g id="node1" class="node">
<title>tensordict</title>
<path fill="AliceBlue" stroke="black" d="M346,-1085.5C346,-1085.5 456,-1085.5 456,-1085.5 462,-1085.5 468,-1091.5 468,-1097.5 468,-1097.5 468,-1165.5 468,-1165.5 468,-1171.5 462,-1177.5 456,-1177.5 456,-1177.5 346,-1177.5 346,-1177.5 340,-1177.5 334,-1171.5 334,-1165.5 334,-1165.5 334,-1097.5 334,-1097.5 334,-1091.5 340,-1085.5 346,-1085.5"/>
<text text-anchor="middle" x="401" y="-1162.3" font-family="Times,serif" font-size="14.00" fill="#000000">name=%tensordict</text>
<polyline fill="none" stroke="black" points="334,-1154.5 468,-1154.5"/>
<text text-anchor="middle" x="401" y="-1139.3" font-family="Times,serif" font-size="14.00" fill="#000000">op_code=placeholder</text>
<polyline fill="none" stroke="black" points="334,-1131.5 468,-1131.5"/>
<text text-anchor="middle" x="401" y="-1116.3" font-family="Times,serif" font-size="14.00" fill="#000000">target=tensordict</text>
<polyline fill="none" stroke="black" points="334,-1108.5 468,-1108.5"/>
<text text-anchor="middle" x="401" y="-1093.3" font-family="Times,serif" font-size="14.00" fill="#000000">num_users=2</text>
</g>
<!-- getitem -->
<g id="node2" class="node">
<title>getitem</title>
<path fill="#fff0f5" stroke="black" d="M12,-903.5C12,-903.5 140,-903.5 140,-903.5 146,-903.5 152,-909.5 152,-915.5 152,-915.5 152,-1036.5 152,-1036.5 152,-1042.5 146,-1048.5 140,-1048.5 140,-1048.5 12,-1048.5 12,-1048.5 6,-1048.5 0,-1042.5 0,-1036.5 0,-1036.5 0,-915.5 0,-915.5 0,-909.5 6,-903.5 12,-903.5"/>
<text text-anchor="middle" x="76" y="-1033.3" font-family="Times,serif" font-size="14.00" fill="#000000">name=%getitem</text>
<polyline fill="none" stroke="black" points="0,-1025.5 152,-1025.5"/>
<text text-anchor="middle" x="76" y="-1010.3" font-family="Times,serif" font-size="14.00" fill="#000000">op_code=call_function</text>
<polyline fill="none" stroke="black" points="0,-1002.5 152,-1002.5"/>
<text text-anchor="middle" x="76" y="-987.3" font-family="Times,serif" font-size="14.00" fill="#000000">target=_operator.getitem</text>
<polyline fill="none" stroke="black" points="0,-979.5 152,-979.5"/>
<text text-anchor="start" x="8" y="-964.3" font-family="Times,serif" font-size="14.00" fill="#000000">args=(</text>
<text text-anchor="middle" x="76" y="-949.3" font-family="Times,serif" font-size="14.00" fill="#000000">(input, x),</text>
<text text-anchor="start" x="8" y="-934.3" font-family="Times,serif" font-size="14.00" fill="#000000">)</text>
<polyline fill="none" stroke="black" points="0,-926.5 152,-926.5"/>
<text text-anchor="middle" x="76" y="-911.3" font-family="Times,serif" font-size="14.00" fill="#000000">num_users=1</text>
</g>
<!-- tensordict&#45;&gt;getitem -->
<g id="edge5" class="edge">
<title>tensordict&#45;&gt;getitem</title>
<path fill="none" stroke="black" d="M334.01,-1115C286.76,-1102.47 222.67,-1082.19 161.7,-1048.98"/>
<polygon fill="black" stroke="black" points="163.7,-1046.09 153.26,-1044.27 160.29,-1052.2 163.7,-1046.09"/>
</g>
<!-- getitem_1 -->
<g id="node10" class="node">
<title>getitem_1</title>
<path fill="#fff0f5" stroke="black" d="M731,-721.5C731,-721.5 859,-721.5 859,-721.5 865,-721.5 871,-727.5 871,-733.5 871,-733.5 871,-854.5 871,-854.5 871,-860.5 865,-866.5 859,-866.5 859,-866.5 731,-866.5 731,-866.5 725,-866.5 719,-860.5 719,-854.5 719,-854.5 719,-733.5 719,-733.5 719,-727.5 725,-721.5 731,-721.5"/>
<text text-anchor="middle" x="795" y="-851.3" font-family="Times,serif" font-size="14.00" fill="#000000">name=%getitem_1</text>
<polyline fill="none" stroke="black" points="719,-843.5 871,-843.5"/>
<text text-anchor="middle" x="795" y="-828.3" font-family="Times,serif" font-size="14.00" fill="#000000">op_code=call_function</text>
<polyline fill="none" stroke="black" points="719,-820.5 871,-820.5"/>
<text text-anchor="middle" x="795" y="-805.3" font-family="Times,serif" font-size="14.00" fill="#000000">target=_operator.getitem</text>
<polyline fill="none" stroke="black" points="719,-797.5 871,-797.5"/>
<text text-anchor="start" x="727" y="-782.3" font-family="Times,serif" font-size="14.00" fill="#000000">args=(</text>
<text text-anchor="middle" x="795" y="-767.3" font-family="Times,serif" font-size="14.00" fill="#000000">(input, mask),</text>
<text text-anchor="start" x="727" y="-752.3" font-family="Times,serif" font-size="14.00" fill="#000000">)</text>
<polyline fill="none" stroke="black" points="719,-744.5 871,-744.5"/>
<text text-anchor="middle" x="795" y="-729.3" font-family="Times,serif" font-size="14.00" fill="#000000">num_users=1</text>
</g>
<!-- tensordict&#45;&gt;getitem_1 -->
<g id="edge6" class="edge">
<title>tensordict&#45;&gt;getitem_1</title>
<path fill="none" stroke="black" d="M467.71,-1130.27C536.41,-1126.46 642.44,-1110.09 708,-1049 755.46,-1004.78 777.03,-933.58 786.83,-877.79"/>
<polygon fill="black" stroke="black" points="790.27,-878.43 788.45,-867.99 783.37,-877.29 790.27,-878.43"/>
</g>
<!-- _0_fc1 -->
<g id="node3" class="node">
<title>_0_fc1</title>
<path fill="#fffacd" stroke="black" d="M116.5,-736.5C116.5,-736.5 277.5,-736.5 277.5,-736.5 283.5,-736.5 289.5,-742.5 289.5,-748.5 289.5,-748.5 289.5,-839.5 289.5,-839.5 289.5,-845.5 283.5,-851.5 277.5,-851.5 277.5,-851.5 116.5,-851.5 116.5,-851.5 110.5,-851.5 104.5,-845.5 104.5,-839.5 104.5,-839.5 104.5,-748.5 104.5,-748.5 104.5,-742.5 110.5,-736.5 116.5,-736.5"/>
<text text-anchor="middle" x="197" y="-836.3" font-family="Times,serif" font-size="14.00" fill="#000000">name=%_0_fc1</text>
<polyline fill="none" stroke="black" points="104.5,-828.5 289.5,-828.5"/>
<text text-anchor="middle" x="197" y="-813.3" font-family="Times,serif" font-size="14.00" fill="#000000">op_code=call_module</text>
<text text-anchor="middle" x="197" y="-782.3" font-family="Times,serif" font-size="14.00" fill="#000000">torch.nn.modules.linear.Linear</text>
<polyline fill="none" stroke="black" points="104.5,-774.5 289.5,-774.5"/>
<text text-anchor="middle" x="197" y="-759.3" font-family="Times,serif" font-size="14.00" fill="#000000">in_features: 100</text>
<text text-anchor="middle" x="197" y="-744.3" font-family="Times,serif" font-size="14.00" fill="#000000">out_features: 50</text>
</g>
<!-- getitem&#45;&gt;_0_fc1 -->
<g id="edge7" class="edge">
<title>getitem&#45;&gt;_0_fc1</title>
<path fill="none" stroke="black" d="M124,-903.6C133.49,-889.48 143.4,-874.73 152.76,-860.81"/>
<polygon fill="black" stroke="black" points="155.62,-862.83 158.29,-852.58 149.81,-858.93 155.62,-862.83"/>
</g>
<!-- relu -->
<g id="node6" class="node">
<title>relu</title>
<path fill="#ffe1ff" stroke="black" d="M111,-592.5C111,-592.5 229,-592.5 229,-592.5 235,-592.5 241,-598.5 241,-604.5 241,-604.5 241,-672.5 241,-672.5 241,-678.5 235,-684.5 229,-684.5 229,-684.5 111,-684.5 111,-684.5 105,-684.5 99,-678.5 99,-672.5 99,-672.5 99,-604.5 99,-604.5 99,-598.5 105,-592.5 111,-592.5"/>
<text text-anchor="middle" x="170" y="-669.3" font-family="Times,serif" font-size="14.00" fill="#000000">name=%relu</text>
<polyline fill="none" stroke="black" points="99,-661.5 241,-661.5"/>
<text text-anchor="middle" x="170" y="-646.3" font-family="Times,serif" font-size="14.00" fill="#000000">op_code=call_function</text>
<polyline fill="none" stroke="black" points="99,-638.5 241,-638.5"/>
<text text-anchor="middle" x="170" y="-623.3" font-family="Times,serif" font-size="14.00" fill="#000000">target=torch.relu</text>
<polyline fill="none" stroke="black" points="99,-615.5 241,-615.5"/>
<text text-anchor="middle" x="170" y="-600.3" font-family="Times,serif" font-size="14.00" fill="#000000">num_users=1</text>
</g>
<!-- _0_fc1&#45;&gt;relu -->
<g id="edge8" class="edge">
<title>_0_fc1&#45;&gt;relu</title>
<path fill="none" stroke="black" d="M187.1,-736.71C184.72,-723.21 182.19,-708.8 179.82,-695.31"/>
<polygon fill="black" stroke="black" points="183.31,-694.98 178.13,-685.74 176.42,-696.2 183.31,-694.98"/>
</g>
<!-- _0_fc1.weight -->
<g id="node4" class="node">
<title>_0_fc1.weight</title>
<path fill="Salmon" stroke="black" d="M182.5,-953C182.5,-953 427.5,-953 427.5,-953 433.5,-953 439.5,-959 439.5,-965 439.5,-965 439.5,-987 439.5,-987 439.5,-993 433.5,-999 427.5,-999 427.5,-999 182.5,-999 182.5,-999 176.5,-999 170.5,-993 170.5,-987 170.5,-987 170.5,-965 170.5,-965 170.5,-959 176.5,-953 182.5,-953"/>
<text text-anchor="middle" x="305" y="-983.8" font-family="Times,serif" font-size="14.00" fill="#000000">_0_fc1.weight</text>
<polyline fill="none" stroke="black" points="170.5,-976 439.5,-976"/>
<text text-anchor="middle" x="305" y="-960.8" font-family="Times,serif" font-size="14.00" fill="#000000">op_code=get_parametertorch.float32[50, 100]</text>
</g>
<!-- _0_fc1.weight&#45;&gt;_0_fc1 -->
<g id="edge1" class="edge">
<title>_0_fc1.weight&#45;&gt;_0_fc1</title>
<path fill="none" stroke="black" d="M291.97,-953.29C278.24,-930.39 255.92,-893.2 236.37,-860.62"/>
<polygon fill="black" stroke="black" points="239.6,-859.2 231.45,-852.42 233.6,-862.8 239.6,-859.2"/>
</g>
<!-- _0_fc1.bias -->
<g id="node5" class="node">
<title>_0_fc1.bias</title>
<path fill="Salmon" stroke="black" d="M469.5,-953C469.5,-953 686.5,-953 686.5,-953 692.5,-953 698.5,-959 698.5,-965 698.5,-965 698.5,-987 698.5,-987 698.5,-993 692.5,-999 686.5,-999 686.5,-999 469.5,-999 469.5,-999 463.5,-999 457.5,-993 457.5,-987 457.5,-987 457.5,-965 457.5,-965 457.5,-959 463.5,-953 469.5,-953"/>
<text text-anchor="middle" x="578" y="-983.8" font-family="Times,serif" font-size="14.00" fill="#000000">_0_fc1.bias</text>
<polyline fill="none" stroke="black" points="457.5,-976 698.5,-976"/>
<text text-anchor="middle" x="578" y="-960.8" font-family="Times,serif" font-size="14.00" fill="#000000">op_code=get_parametertorch.float32[50]</text>
</g>
<!-- _0_fc1.bias&#45;&gt;_0_fc1 -->
<g id="edge2" class="edge">
<title>_0_fc1.bias&#45;&gt;_0_fc1</title>
<path fill="none" stroke="black" d="M541.01,-953C515.51,-938.18 480.65,-918.56 449,-903 400.75,-879.28 346.02,-855.46 299.92,-836.26"/>
<polygon fill="black" stroke="black" points="301.29,-833.04 290.71,-832.44 298.61,-839.5 301.29,-833.04"/>
</g>
<!-- _0_fc2 -->
<g id="node7" class="node">
<title>_0_fc2</title>
<path fill="#fffacd" stroke="black" d="M444.5,-440.5C444.5,-440.5 605.5,-440.5 605.5,-440.5 611.5,-440.5 617.5,-446.5 617.5,-452.5 617.5,-452.5 617.5,-543.5 617.5,-543.5 617.5,-549.5 611.5,-555.5 605.5,-555.5 605.5,-555.5 444.5,-555.5 444.5,-555.5 438.5,-555.5 432.5,-549.5 432.5,-543.5 432.5,-543.5 432.5,-452.5 432.5,-452.5 432.5,-446.5 438.5,-440.5 444.5,-440.5"/>
<text text-anchor="middle" x="525" y="-540.3" font-family="Times,serif" font-size="14.00" fill="#000000">name=%_0_fc2</text>
<polyline fill="none" stroke="black" points="432.5,-532.5 617.5,-532.5"/>
<text text-anchor="middle" x="525" y="-517.3" font-family="Times,serif" font-size="14.00" fill="#000000">op_code=call_module</text>
<text text-anchor="middle" x="525" y="-486.3" font-family="Times,serif" font-size="14.00" fill="#000000">torch.nn.modules.linear.Linear</text>
<polyline fill="none" stroke="black" points="432.5,-478.5 617.5,-478.5"/>
<text text-anchor="middle" x="525" y="-463.3" font-family="Times,serif" font-size="14.00" fill="#000000">in_features: 50</text>
<text text-anchor="middle" x="525" y="-448.3" font-family="Times,serif" font-size="14.00" fill="#000000">out_features: 10</text>
</g>
<!-- relu&#45;&gt;_0_fc2 -->
<g id="edge9" class="edge">
<title>relu&#45;&gt;_0_fc2</title>
<path fill="none" stroke="black" d="M240.73,-596.34C243.84,-594.83 246.94,-593.37 250,-592 305.27,-567.21 369.27,-545.19 421.61,-528.82"/>
<polygon fill="black" stroke="black" points="422.64,-532.16 431.15,-525.86 420.56,-525.48 422.64,-532.16"/>
</g>
<!-- mul -->
<g id="node11" class="node">
<title>mul</title>
<path fill="#eed5d2" stroke="black" d="M565,-311.5C565,-311.5 683,-311.5 683,-311.5 689,-311.5 695,-317.5 695,-323.5 695,-323.5 695,-391.5 695,-391.5 695,-397.5 689,-403.5 683,-403.5 683,-403.5 565,-403.5 565,-403.5 559,-403.5 553,-397.5 553,-391.5 553,-391.5 553,-323.5 553,-323.5 553,-317.5 559,-311.5 565,-311.5"/>
<text text-anchor="middle" x="624" y="-388.3" font-family="Times,serif" font-size="14.00" fill="#000000">name=%mul</text>
<polyline fill="none" stroke="black" points="553,-380.5 695,-380.5"/>
<text text-anchor="middle" x="624" y="-365.3" font-family="Times,serif" font-size="14.00" fill="#000000">op_code=call_function</text>
<polyline fill="none" stroke="black" points="553,-357.5 695,-357.5"/>
<text text-anchor="middle" x="624" y="-342.3" font-family="Times,serif" font-size="14.00" fill="#000000">target=_operator.mul</text>
<polyline fill="none" stroke="black" points="553,-334.5 695,-334.5"/>
<text text-anchor="middle" x="624" y="-319.3" font-family="Times,serif" font-size="14.00" fill="#000000">num_users=1</text>
</g>
<!-- _0_fc2&#45;&gt;mul -->
<g id="edge10" class="edge">
<title>_0_fc2&#45;&gt;mul</title>
<path fill="none" stroke="black" d="M565.27,-440.67C571.93,-431.34 578.83,-421.69 585.45,-412.43"/>
<polygon fill="black" stroke="black" points="588.11,-414.73 591.08,-404.55 582.42,-410.65 588.11,-414.73"/>
</g>
<!-- output -->
<g id="node13" class="node">
<title>output</title>
<path fill="PowderBlue" stroke="black" d="M533.5,-0.5C533.5,-0.5 614.5,-0.5 614.5,-0.5 620.5,-0.5 626.5,-6.5 626.5,-12.5 626.5,-12.5 626.5,-80.5 626.5,-80.5 626.5,-86.5 620.5,-92.5 614.5,-92.5 614.5,-92.5 533.5,-92.5 533.5,-92.5 527.5,-92.5 521.5,-86.5 521.5,-80.5 521.5,-80.5 521.5,-12.5 521.5,-12.5 521.5,-6.5 527.5,-0.5 533.5,-0.5"/>
<text text-anchor="middle" x="574" y="-77.3" font-family="Times,serif" font-size="14.00" fill="#000000">name=%output</text>
<polyline fill="none" stroke="black" points="521.5,-69.5 626.5,-69.5"/>
<text text-anchor="middle" x="574" y="-54.3" font-family="Times,serif" font-size="14.00" fill="#000000">op_code=output</text>
<polyline fill="none" stroke="black" points="521.5,-46.5 626.5,-46.5"/>
<text text-anchor="middle" x="574" y="-31.3" font-family="Times,serif" font-size="14.00" fill="#000000">target=output</text>
<polyline fill="none" stroke="black" points="521.5,-23.5 626.5,-23.5"/>
<text text-anchor="middle" x="574" y="-8.3" font-family="Times,serif" font-size="14.00" fill="#000000">num_users=0</text>
</g>
<!-- _0_fc2&#45;&gt;output -->
<g id="edge11" class="edge">
<title>_0_fc2&#45;&gt;output</title>
<path fill="none" stroke="black" d="M522.7,-440.54C520.91,-367.74 521.75,-237.58 544,-129 545.75,-120.48 548.23,-111.67 551.02,-103.12"/>
<polygon fill="black" stroke="black" points="554.25,-104.51 554.21,-93.92 547.63,-102.22 554.25,-104.51"/>
</g>
<!-- _0_fc2.weight -->
<g id="node8" class="node">
<title>_0_fc2.weight</title>
<path fill="Salmon" stroke="black" d="M271,-615.5C271,-615.5 509,-615.5 509,-615.5 515,-615.5 521,-621.5 521,-627.5 521,-627.5 521,-649.5 521,-649.5 521,-655.5 515,-661.5 509,-661.5 509,-661.5 271,-661.5 271,-661.5 265,-661.5 259,-655.5 259,-649.5 259,-649.5 259,-627.5 259,-627.5 259,-621.5 265,-615.5 271,-615.5"/>
<text text-anchor="middle" x="390" y="-646.3" font-family="Times,serif" font-size="14.00" fill="#000000">_0_fc2.weight</text>
<polyline fill="none" stroke="black" points="259,-638.5 521,-638.5"/>
<text text-anchor="middle" x="390" y="-623.3" font-family="Times,serif" font-size="14.00" fill="#000000">op_code=get_parametertorch.float32[10, 50]</text>
</g>
<!-- _0_fc2.weight&#45;&gt;_0_fc2 -->
<g id="edge3" class="edge">
<title>_0_fc2.weight&#45;&gt;_0_fc2</title>
<path fill="none" stroke="black" d="M411.39,-615.55C425.12,-601.47 443.73,-582.38 461.9,-563.73"/>
<polygon fill="black" stroke="black" points="464.4,-566.19 468.87,-556.58 459.39,-561.3 464.4,-566.19"/>
</g>
<!-- _0_fc2.bias -->
<g id="node9" class="node">
<title>_0_fc2.bias</title>
<path fill="Salmon" stroke="black" d="M551.5,-615.5C551.5,-615.5 768.5,-615.5 768.5,-615.5 774.5,-615.5 780.5,-621.5 780.5,-627.5 780.5,-627.5 780.5,-649.5 780.5,-649.5 780.5,-655.5 774.5,-661.5 768.5,-661.5 768.5,-661.5 551.5,-661.5 551.5,-661.5 545.5,-661.5 539.5,-655.5 539.5,-649.5 539.5,-649.5 539.5,-627.5 539.5,-627.5 539.5,-621.5 545.5,-615.5 551.5,-615.5"/>
<text text-anchor="middle" x="660" y="-646.3" font-family="Times,serif" font-size="14.00" fill="#000000">_0_fc2.bias</text>
<polyline fill="none" stroke="black" points="539.5,-638.5 780.5,-638.5"/>
<text text-anchor="middle" x="660" y="-623.3" font-family="Times,serif" font-size="14.00" fill="#000000">op_code=get_parametertorch.float32[10]</text>
</g>
<!-- _0_fc2.bias&#45;&gt;_0_fc2 -->
<g id="edge4" class="edge">
<title>_0_fc2.bias&#45;&gt;_0_fc2</title>
<path fill="none" stroke="black" d="M638.61,-615.55C624.88,-601.47 606.27,-582.38 588.1,-563.73"/>
<polygon fill="black" stroke="black" points="590.61,-561.3 581.13,-556.58 585.6,-566.19 590.61,-561.3"/>
</g>
<!-- getitem_1&#45;&gt;mul -->
<g id="edge12" class="edge">
<title>getitem_1&#45;&gt;mul</title>
<path fill="none" stroke="black" d="M803.22,-721.96C805.31,-682.68 803.84,-633.56 790,-592 766.9,-522.62 715.58,-455.91 676.07,-411.7"/>
<polygon fill="black" stroke="black" points="678.91,-409.62 669.61,-404.55 673.72,-414.32 678.91,-409.62"/>
</g>
<!-- softmax -->
<g id="node12" class="node">
<title>softmax</title>
<path fill="#caff70" stroke="black" d="M565,-129.5C565,-129.5 683,-129.5 683,-129.5 689,-129.5 695,-135.5 695,-141.5 695,-141.5 695,-262.5 695,-262.5 695,-268.5 689,-274.5 683,-274.5 683,-274.5 565,-274.5 565,-274.5 559,-274.5 553,-268.5 553,-262.5 553,-262.5 553,-141.5 553,-141.5 553,-135.5 559,-129.5 565,-129.5"/>
<text text-anchor="middle" x="624" y="-259.3" font-family="Times,serif" font-size="14.00" fill="#000000">name=%softmax</text>
<polyline fill="none" stroke="black" points="553,-251.5 695,-251.5"/>
<text text-anchor="middle" x="624" y="-236.3" font-family="Times,serif" font-size="14.00" fill="#000000">op_code=call_function</text>
<polyline fill="none" stroke="black" points="553,-228.5 695,-228.5"/>
<text text-anchor="middle" x="624" y="-213.3" font-family="Times,serif" font-size="14.00" fill="#000000">target=torch.softmax</text>
<polyline fill="none" stroke="black" points="553,-205.5 695,-205.5"/>
<text text-anchor="start" x="561" y="-190.3" font-family="Times,serif" font-size="14.00" fill="#000000">kwargs={</text>
<text text-anchor="middle" x="624" y="-175.3" font-family="Times,serif" font-size="14.00" fill="#000000">dim: 1,</text>
<text text-anchor="start" x="561" y="-160.3" font-family="Times,serif" font-size="14.00" fill="#000000">}</text>
<polyline fill="none" stroke="black" points="553,-152.5 695,-152.5"/>
<text text-anchor="middle" x="624" y="-137.3" font-family="Times,serif" font-size="14.00" fill="#000000">num_users=1</text>
</g>
<!-- mul&#45;&gt;softmax -->
<g id="edge13" class="edge">
<title>mul&#45;&gt;softmax</title>
<path fill="none" stroke="black" d="M624,-311.69C624,-303.48 624,-294.67 624,-285.75"/>
<polygon fill="black" stroke="black" points="627.5,-285.95 624,-275.95 620.5,-285.95 627.5,-285.95"/>
</g>
<!-- softmax&#45;&gt;output -->
<g id="edge14" class="edge">
<title>softmax&#45;&gt;output</title>
<path fill="none" stroke="black" d="M600.76,-129.64C597.85,-120.72 594.91,-111.71 592.1,-103.08"/>
<polygon fill="black" stroke="black" points="595.52,-102.26 589.09,-93.83 588.86,-104.43 595.52,-102.26"/>
</g>
</g>
</svg>
